<svg width="33" height="32" fill="none" xmlns="http://www.w3.org/2000/svg"><path fill-rule="evenodd" clip-rule="evenodd" d="M14.8744 32.0001H3.03051c-1.45452 0-2.632027-1.1775-2.632027-2.632V23.688c0-1.4545 1.177507-2.632 2.632027-2.632h7.48059v-8.3113c0-1.4545 1.1775-2.632 2.632-2.632h8.3116v21.8179h-6.5803v.0695z" fill="#FFC517"/><path fill-rule="evenodd" clip-rule="evenodd" d="M29.7672 31.9998h-8.3115V2.63202C21.4557 1.17751 22.6332 0 24.0877 0h5.6795c1.4546 0 2.6321 1.17751 2.6321 2.63202V29.3678c-.0693 1.4545-1.2468 2.632-2.6321 2.632z" fill="#F57E02"/><path fill-rule="evenodd" clip-rule="evenodd" d="M32.329 21.0563v8.3116c0 .698-.2773 1.3675-.7709 1.8611-.4936.4936-1.1631.7709-1.8611.7709h-8.3116V10.1127L32.329 21.0563z" fill="url(#paint0_linear)"/><defs><linearGradient id="paint0_linear" x1="21.4221" y1="21.057" x2="32.3394" y2="21.057" gradientUnits="userSpaceOnUse"><stop stop-color="#E96F0B"/><stop offset="1" stop-color="#F37901"/></linearGradient></defs></svg>