<svg width="32" height="32" fill="none" xmlns="http://www.w3.org/2000/svg"><path d="M26.4998 15.9999c0 5.7989-4.701 10.4999-10.4999 10.4999-5.7989 0-10.4999-4.701-10.4999-10.4999C5.5 10.201 10.201 5.5 15.9999 5.5c5.7989 0 10.4999 4.701 10.4999 10.4999z" stroke="#9BB7C6" stroke-width="11"/><mask id="path-2-inside-1" fill="#fff"><path d="M27.3135 27.3135c-2.2376 2.2376-5.0885 3.7615-8.1922 4.3788-3.1037.6174-6.3207.3005-9.2443-.9104-2.9236-1.211-5.42244-3.2618-7.18053-5.893C.938377 22.2578 2e-7 19.1644 0 15.9999c-2e-7-3.1645.938377-6.2579 2.69647-8.88907C4.45456 4.47966 6.9534 2.42891 9.87699 1.21792 12.8006.00692568 16.0176-.309926 19.1213.307433c3.1037.617359 5.9546 2.141197 8.1922 4.378827L15.9999 15.9999l11.3136 11.3136z"/></mask><path d="M27.3135 27.3135c-2.2376 2.2376-5.0885 3.7615-8.1922 4.3788-3.1037.6174-6.3207.3005-9.2443-.9104-2.9236-1.211-5.42244-3.2618-7.18053-5.893C.938377 22.2578 2e-7 19.1644 0 15.9999c-2e-7-3.1645.938377-6.2579 2.69647-8.88907C4.45456 4.47966 6.9534 2.42891 9.87699 1.21792 12.8006.00692568 16.0176-.309926 19.1213.307433c3.1037.617359 5.9546 2.141197 8.1922 4.378827L15.9999 15.9999l11.3136 11.3136z" stroke="#054D70" stroke-width="22" mask="url(#path-2-inside-1)"/><circle cx="15.9991" cy="15.9999" r="7.61899" fill="#fff"/></svg>