<svg width="40" height="32" fill="none" xmlns="http://www.w3.org/2000/svg"><g clip-path="url(#clip0)"><path d="M37.7125 0H2.28997C1.03517 0 .00299072.990102.00299072 2.19375V29.8063C.00299072 31.0099 1.03517 32 2.28997 32H37.7125c1.2548 0 2.287-.9901 2.287-2.1937V2.19375C39.9995.990102 38.9673 0 37.7125 0zm-2.1654 2.10851c.8007 0 1.4592.63166 1.4592 1.39969 0 .76804-.6585 1.39969-1.4592 1.39969-.8007 0-1.4592-.63165-1.4592-1.39969 0-.76803.6585-1.39969 1.4592-1.39969zm-5.2054 0c.8007 0 1.4592.63166 1.4592 1.39969 0 .76804-.6585 1.39969-1.4592 1.39969-.8006 0-1.4591-.63165-1.4591-1.39969 0-.76803.6585-1.39969 1.4591-1.39969zm-5.2053 0c.8007 0 1.4592.63166 1.4592 1.39969 0 .76804-.6585 1.39969-1.4592 1.39969-.8007 0-1.4592-.63165-1.4592-1.39969 0-.76803.6585-1.39969 1.4592-1.39969zm11.926 27.05169H2.92135V6.79658H37.0624V29.1602z" fill="#394C60"/><path d="M13.5646 26.7825c.2346-.3736.59-.6634 1.0121-.8254.4222-.162.8879-.1872 1.3264-.0719.2009.0669.4139.0944.6261.0807.2123-.0137.4195-.0682.6093-.1603.1898-.0921.3584-.2199.4956-.3757.1373-.1559.2405-.3367.3034-.5316.1526-.3933.1404-.8279-.034-1.2127-.1744-.3848-.4975-.6898-.9014-.851-.3969-.1735-.7225-.4686-.9256-.8389-.2032-.3702-.2724-.7947-.1968-1.2068.0701-.4299.2954-.8225.6364-1.1094.341-.287.7762-.45 1.2296-.4608.4448-.009.8682-.1843 1.1801-.4885.3119-.3042.4876-.7133.4896-1.1399-.0021-.4313-.1817-.8444-.4996-1.1493-.3179-.305-.7485-.4772-1.1981-.4792h-.0281c-.4554-.0129-.8928-.1734-1.241-.4553-.3482-.2818-.5867-.6685-.6765-1.097-.051-.2594-.051-.5256 0-.785.0477-.2866.1659-.5582.3449-.7923.1789-.234.4134-.4238.684-.5536.3856-.2002.676-.5351.811-.9352s.1042-.8348-.0861-1.2137c-.1442-.40073-.4483-.73022-.8455-.91611-.3972-.18588-.8551-.21297-1.2731-.07532-.4227.16233-.8919.17505-1.3235.03589-.371-.16013-.6931-.4088-.9354-.72228-.1835-.23464-.3133-.50374-.381-.78976-.0677-.28601-.0717-.58251-.0119-.87013H4.9639c3.61521 1.86177 7.0574 5.60321 7.1416 10.56951.0935 5.3834-2.87631 9.7305-7.24449 11.7942h8.80179c-.2929-.3271-.462-.7394-.4798-1.1702-.0178-.4308.1167-.8548.3816-1.203z" fill="#3C9BD6"/><path d="M24.5693 8.94985c.3516.27854.5928.66455.683 1.09335.0903.4288.0241.8743-.1873 1.2619-.1734.4039-.4799.7422-.8726.9633-.3926.2212-.85.313-1.3021.2614-.2105-.0385-.427-.0358-.6364.008-.2093.0437-.4073.1276-.5821.2466-.1747.119-.3226.2707-.4347.4459-.112.1752-.1861.3703-.2176.5736-.0902.4086-.0128.8348.2164 1.19.2291.3551.5922.6118 1.0136.7166.4204.1127.7898.3563 1.0498.6927.2599.3363.3958.746.386 1.1646-.0063.4242-.1637.8336-.4462 1.1601-.2825.3264-.673.5503-1.1065.6344-.3944.066-.752.2631-1.01.5568-.2581.2937-.4.6652-.401 1.0493.0021.4315.1817.8448.4998 1.1499.3181.3051.749.4774 1.1988.4794.0964 0 .1927-.0076.2877-.0233.4519-.0541.9096.0402 1.2986.2675.3889.2272.6862.5741.8434.9842.0902.2494.1314.5123.1216.7761.0005.2921-.0718.5801-.2109.84s-.341.4841-.5889.6539c-.3531.2546-.5894.6307-.6592 1.0491-.0698.4184.0324.8464.2851 1.194.2307.3447.5538.6236.9353.8075h10.4107c-3.3112-1.5747-6.3886-4.5356-7.1415-8.7481-1.0664-5.9711 1.8707-11.17509 6.8048-13.60661H24.1951c-.2361.33765-.3289.74907-.2594 1.15016.0696.40108.2962.76155.6336 1.0077z" fill="#E74F38"/><path d="M27.5671 29.4744h-.304c.0992.0278.2049.0278.304 0z" fill="#3C9BD6"/></g><defs><clipPath id="clip0"><path fill="#fff" d="M0 0h40v32H0z"/></clipPath></defs></svg>