<svg width="33" height="32" fill="none" xmlns="http://www.w3.org/2000/svg"><path d="M32.2986 9.40344c-.0789-1.70174-.3507-2.8684-.7452-3.88593-.412-1.05263-.9556-1.94736-1.8411-2.83332-.8854-.88596-1.7797-1.43858-2.8317-1.842091-1.017-.394734-2.183-.666662-3.8838-.7456086C21.2872.0175436 20.7436 0 16.4039 0c-4.3484 0-4.892.0175436-6.5928.0964904C8.11029.175437 6.94427.447365 5.92729.842099c-1.05204.412281-1.94628.956131-2.83176 1.842091-.88547.88596-1.4378 1.78069-1.84108 2.83332C.859932 6.53504.588153 7.7017.509249 9.40344.430346 11.114.412811 11.6578.412811 15.9999c0 4.3508.017535 4.8947.096438 6.5964.078904 1.7018.350683 2.8684.745201 3.886.41205 1.0526.95561 1.9473 1.84108 2.8333.88548.8859 1.77972 1.4386 2.83176 1.8421 1.01698.3947 2.183.6666 3.88381.7456 1.7096.0789 2.2531.0965 6.5928.0965 4.3485 0 4.8921-.0176 6.5929-.0965 1.7008-.079 2.8668-.3509 3.8838-.7456 1.052-.4123 1.9463-.9562 2.8317-1.8421.8855-.886 1.4378-1.7807 1.8411-2.8333.3945-1.0176.6663-2.1842.7452-3.886.0789-1.7105.0965-2.2543.0965-6.5964s-.0176-4.8947-.0965-6.59646zM29.423 22.4648c-.0701 1.5613-.3331 2.4122-.5523 2.9736-.2893.7456-.64 1.2807-1.2011 1.8421-.5611.5614-1.0959.9035-1.8411 1.2018-.5611.2193-1.4115.4824-2.972.5526-1.6833.0789-2.1918.0965-6.4613.0965-4.2696 0-4.7781-.0176-6.46136-.0965-1.56054-.0702-2.41094-.3333-2.97203-.5526-.7452-.2895-1.27999-.6404-1.84109-1.2018-.56109-.5614-.903-1.0965-1.20108-1.8421-.21918-.5614-.48219-1.4123-.55233-2.9736-.0789-1.6842-.09644-2.193-.09644-6.4649 0-4.2719.01754-4.7807.09644-6.46488.07014-1.56139.33315-2.41226.55233-2.97366.28931-.74561.63999-1.2807 1.20108-1.8421.5611-.56139 1.09589-.9035 1.84109-1.20174.56109-.2193 1.41149-.48245 2.97203-.55263 1.68326-.07895 2.19176-.09649 6.46136-.09649 4.2695 0 4.778.01754 6.4613.09649 1.5605.07018 2.4109.33333 2.972.55263.7452.28947 1.28.64035 1.8411 1.20174.5611.5614.903 1.09649 1.2011 1.8421.2192.5614.4822 1.41227.5523 2.97366.0789 1.68418.0965 2.19298.0965 6.46488 0 4.2719-.0263 4.7807-.0965 6.4649z" fill="url(#paint0_linear)"/><path d="M16.3931 7.78125c-4.5413 0-8.21472 3.68415-8.21472 8.21925 0 4.5438 3.68212 8.2192 8.21472 8.2192s8.2147-3.6842 8.2147-8.2192c0-4.5438-3.6734-8.21925-8.2147-8.21925zm0 13.55255c-2.9457 0-5.3304-2.386-5.3304-5.3333 0-2.9474 2.3847-5.3333 5.3304-5.3333s5.3304 2.3859 5.3304 5.3333c0 2.9473-2.3847 5.3333-5.3304 5.3333z" fill="url(#paint1_linear)"/><path d="M24.9342 9.37723c1.0604 0 1.92-.86007 1.92-1.92103 0-1.06096-.8596-1.92104-1.92-1.92104s-1.92.86008-1.92 1.92104c0 1.06096.8596 1.92103 1.92 1.92103z" fill="#BC30A0"/><path d="M.394577 15.9999c0 4.3508.017535 4.8947.096438 6.5964.078904 1.7018.350683 2.8684.745205 3.886.41205 1.0526.95561 1.9473 1.84108 2.8333.88547.8859 1.77971 1.4386 2.83176 1.8421 1.01698.3947 2.183.6666 3.88381.7456 1.70953.0789 2.25313.0965 6.59283.0965 4.3485 0 4.892-.0176 6.5928-.0965 1.7008-.079 2.8669-.3509 3.8838-.7456 1.0521-.4123 1.9463-.9562 2.8318-1.8421.8855-.886 1.4378-1.7807 1.8411-2.8333.3945-1.0176.6663-2.1842.7452-3.886.0789-1.7105.0964-2.2543.0964-6.5964 0-4.3509-.0175-4.8947-.0964-6.59646-.0789-1.70174-.3507-2.8684-.7452-3.88593-.4121-1.05263-.9556-1.94736-1.8411-2.83332-.8855-.88596-1.7797-1.43858-2.8318-1.842091-1.0169-.394734-2.183-.666662-3.8838-.7456086C21.269.0175436 20.7254 0 16.3857 0c-4.3485 0-4.892.0175436-6.59283.0964904C8.09206.175437 6.92604.447365 5.90906.842099 4.85701 1.25438 3.96277 1.79823 3.0773 2.68419S1.6395 4.46488 1.23622 5.51751C.841698 6.53504.569919 7.7017.491015 9.40344.412112 11.1052.394577 11.649.394577 15.9999zm2.884363 0c0-4.2719.01753-4.7807.09644-6.46488.07013-1.56139.33315-2.41226.55232-2.97366.28932-.74561.64-1.2807 1.20109-1.8421.56109-.56139 1.09588-.9035 1.84108-1.20174.5611-.2193 1.4115-.48245 2.97204-.55263 1.68329-.07895 2.19179-.09649 6.46129-.09649 4.2696 0 4.7781.01754 6.4614.09649 1.5605.07018 2.4109.33333 2.972.55263.7452.28947 1.28.64035 1.8411 1.20174.5611.5614.903 1.09649 1.2011 1.8421.2191.5614.4822 1.41227.5523 2.97366.0789 1.68418.0964 2.19298.0964 6.46488 0 4.2719-.0175 4.7807-.0964 6.4649-.0701 1.5613-.3332 2.4122-.5523 2.9736-.2894.7456-.64 1.2807-1.2011 1.8421-.5611.5614-1.0959.9035-1.8411 1.2018-.5611.2193-1.4115.4824-2.972.5526-1.6833.0789-2.1918.0965-6.4614.0965-4.2695 0-4.778-.0176-6.46129-.0965-1.56054-.0702-2.41094-.3333-2.97204-.5526-.7452-.2895-1.27999-.6404-1.84108-1.2018-.56109-.5614-.90301-1.0965-1.20109-1.8421-.21917-.5614-.48219-1.4123-.55232-2.9736-.07891-1.6842-.09644-2.193-.09644-6.4649z" fill="url(#paint2_linear)"/><defs><linearGradient id="paint0_linear" x1="10.8483" y1="-2.56667" x2="21.3383" y2="32.5072" gradientUnits="userSpaceOnUse"><stop stop-color="#4367DC"/><stop offset=".0428861" stop-color="#4C62D6"/><stop offset=".1142" stop-color="#6654C7"/><stop offset=".2045" stop-color="#8F3DAE"/><stop offset=".2341" stop-color="#9E35A5"/><stop offset=".4512" stop-color="#D42F7F"/><stop offset=".8242" stop-color="#D73578"/></linearGradient><linearGradient id="paint1_linear" x1="20.3128" y1="9.40645" x2="11.9048" y2="23.5355" gradientUnits="userSpaceOnUse"><stop offset=".3304" stop-color="#D42F7F"/><stop offset="1" stop-color="#F7772E"/></linearGradient><linearGradient id="paint2_linear" x1="23.648" y1="-1.30987" x2="9.4866" y2="32.4477" gradientUnits="userSpaceOnUse"><stop offset=".2341" stop-color="#9E35A5" stop-opacity="0"/><stop offset=".4512" stop-color="#D42F7F" stop-opacity=".5"/><stop offset=".7524" stop-color="#F7772E"/><stop offset=".9624" stop-color="#FEF780"/></linearGradient></defs></svg>