<svg width="48" height="32" fill="none" xmlns="http://www.w3.org/2000/svg"><path d="M.980319 14.4854L22.4932.399638c.9374-.532851 2.0857-.532851 3.023 0L47.0291 14.4854c.8436.417 1.2186 1.4132.7968 2.2704-.1641.3475-.4453.6256-.7968.7877l-2.8824 1.8766C37.0929 8.41557 22.376 5.14896 11.2446 12.0992c-2.97615 1.8765-5.50708 4.3555-7.40527 7.3209L.93345 17.5435C.0898084 17.1033-.238274 16.084.183547 15.25c.187476-.3244.468689-.6024.796772-.7646zm22.989281-.1621c-6.1633.0231-11.9048 3.1507-15.1856 8.3171l4.9447 3.2434c3.398-5.5833 10.733-7.3672 16.3573-4.008 1.6638.9962 3.0464 2.3631 4.0541 4.008l4.9447-3.2434c-3.234-5.1895-8.952-8.3403-15.1152-8.3171zm0 11.769c-2.1795.0232-4.1714 1.1815-5.2494 3.0581l3.3277 2.1546c.539.4633 1.2186.695 1.9217.695.703 0 1.406-.2548 1.9216-.695l3.3277-2.1546c-1.0546-1.8997-3.0699-3.0581-5.2493-3.0581z" fill="url(#paint0_linear)"/><defs><linearGradient id="paint0_linear" x1="23.9892" y1="31.9918" x2="23.9892" y2=".00383233" gradientUnits="userSpaceOnUse"><stop stop-color="#EFC119"/><stop offset=".3314" stop-color="#92C84E"/><stop offset=".4859" stop-color="#71BF5B"/><stop offset=".7506" stop-color="#15B158"/><stop offset=".903" stop-color="#23AC69"/><stop offset="1" stop-color="#23AC69"/></linearGradient></defs></svg>