<svg width="40" height="40" fill="none" xmlns="http://www.w3.org/2000/svg"><g clip-path="url(#clip0)" fill="#1C2C49"><path d="M30.0164 18.9025c.2918-.0347.572-.0366.8291 0 .1492-.3409.1742-.9292.0404-1.5695-.1984-.9523-.468-1.5282-1.0245-1.4386-.5566.0895-.5768.779-.3775 1.7313.1107.5354.3101.9937.5325 1.2768zM25.2406 19.6558c.3977.1743.6423.2908.7385.1897.0617-.0635.0434-.1839-.052-.3389-.1964-.3207-.6008-.6461-1.0293-.8281-.8762-.3775-1.9219-.2523-2.7289.3274-.2667.1954-.519.465-.4824.6297.0116.053.0511.0934.1454.1059.2196.0251.987-.363 1.87-.4169.6239-.0385 1.141.1569 1.5387.3312zM24.4403 20.1118c-.518.0819-.804.2523-.9879.4121-.157.1368-.2533.288-.2523.3948 0 .0511.0221.08.0395.0944.024.0212.052.0327.0857.0327.1174 0 .3793-.1049.3793-.1049.7213-.2581 1.1969-.2273 1.6688-.1733.2609.0288.3832.0452.441-.0443.0173-.026.0375-.0809-.0145-.1657-.1223-.1983-.6461-.5305-1.3596-.4458zM28.404 21.7897c.3514.1733.7395.105.8656-.1512.1261-.2571-.0568-.6047-.4092-.778s-.7395-.1049-.8657.1512c-.1251.2571.0578.6057.4093.778zM30.667 19.8126c-.286-.0049-.5229.309-.5296.701-.0067.3919.2195.7135.5055.7183.286.0048.5229-.3091.5296-.701.0068-.3919-.2195-.7135-.5055-.7183zM11.4613 26.8828c-.0713-.0896-.1878-.0617-.3014-.0357-.079.0183-.1685.0395-.2667.0376-.2099-.0039-.3881-.0944-.4882-.2475-.13-.2003-.1223-.4978.0212-.8396.0192-.0462.0423-.0973.0674-.1531.2291-.5142.6133-1.376.182-2.1964-.3245-.6172-.85318-1.0024-1.48966-1.0833-.61049-.077-1.23926.1493-1.63983.5913-.63263.6981-.73181 1.6475-.60952 1.9826.04526.1232.11458.1569.16562.1637.10784.0144.26672-.0636.36687-.3322.00674-.0193.01637-.0491.02888-.0877.0443-.1415.12711-.4053.26288-.6172.16369-.2552.4179-.4314.7164-.4949.30428-.0655.61529-.0068.87528.1637.44294.2898.61337.8329.42464 1.3509-.09822.2677-.2571.78-.22147 1.2008.07126.8521.59511 1.194 1.06591 1.2306.4574.0173.7781-.2398.8589-.4276.0463-.1097.0068-.1771-.0192-.206z"/><path d="M37.8816 25.3234c-.0173-.0616-.1309-.4766-.2869-.9764-.156-.4997-.3178-.8522-.3178-.8522.6259-.9369.6365-1.7746.5537-2.2483-.0886-.5884-.3332-1.0891-.8272-1.6071-.493-.5181-1.5021-1.0486-2.9204-1.4463-.1618-.0453-.6972-.1926-.7444-.207-.0038-.0308-.0395-1.7544-.0712-2.494-.0231-.5344-.0694-1.3702-.3284-2.1925-.3091-1.1131-.8464-2.0876-1.5185-2.7106 1.8536-1.92096 3.0101-4.03742 3.0072-5.85249-.0058-3.4915-4.2927-4.547802-9.5771-2.36008-.0058.00192-1.1112.47086-1.1198.47567-.0049-.00481-2.0241-1.985507-2.0539-2.012469C15.6529-4.41494-3.18244 16.5205 2.83957 21.6056l1.31629 1.1151c-.34183.8839-.47568 1.8979-.3659 2.9869.14058 1.3991.86276 2.7414 2.03269 3.7775 1.11023.9841 2.57096 1.6071 3.98835 1.6061 2.3437 5.4 7.6975 8.7133 13.9766 8.9001 6.7345.2003 12.3877-2.96 14.7565-8.6363.155-.3986.8127-2.1935.8127-3.7784-.0019-1.5926-.9023-2.2532-1.4752-2.2532zm-27.5535 4.2503c-.2042.0346-.4131.0491-.62398.0433-2.03366-.0549-4.23101-1.8854-4.44959-4.0577-.24168-2.4005.98506-4.2474 3.15641-4.6855.25998-.052.57293-.0828.91187-.0645 1.21709.0664 3.00999 1.0014 3.41929 3.6513.363 2.3476-.2138 4.7385-2.414 5.1131zM8.05659 19.4391c-1.35192.2629-2.54303 1.0293-3.27195 2.0876-.43524-.363-1.24697-1.066-1.39044-1.3404-1.16319-2.2089 1.26911-6.5035 2.96864-8.929C10.563 5.26418 17.1406.727935 20.1863 1.55122c.4949.14058 2.1348 2.04135 2.1348 2.04135s-3.0438 1.68894-5.867 4.04324C12.6506 10.563 9.7773 14.82 8.05659 19.4391zm21.35051 9.2371c.0443-.0183.0751-.0693.0693-.1194-.0067-.0616-.0616-.1069-.1232-.1001 0 0-3.1863.4718-6.1963-.6307.3274-1.0659 1.1997-.6808 2.517-.5749 2.3755.1416 4.5035-.2051 6.0769-.6567 1.3635-.3909 3.1535-1.1622 4.5449-2.2599.4689 1.0303.6346 2.1646.6346 2.1646s.363-.0645.6663.1213c.2869.1762.4969.5431.3534 1.4916-.2927 1.7717-1.0457 3.2093-2.311 4.5324-.7703.829-1.7063 1.5502-2.776 2.075-.5682.2985-1.1738.5566-1.8132.7655-4.7712 1.558-9.656-.155-11.2304-3.8343-.1261-.2763-.232-.5661-.3158-.8685-.6711-2.4246-.1011-5.3335 1.6793-7.164v-.001c.1098-.1165.2215-.2542.2215-.4265 0-.1445-.0915-.2966-.1714-.4054-.623-.9032-2.7809-2.4429-2.3476-5.4231.311-2.1405 2.1829-3.6484 3.9287-3.5589.1473.0077.2946.0164.4419.025.7569.0443 1.4165.1416 2.0385.1676 1.0419.0452 1.9788-.1069 3.089-1.0313.3746-.312.675-.5825 1.1825-.6682.0529-.0087.1858-.0568.4516-.0443.2705.0144.5286.0886.7607.2426.8897.5922 1.0158 2.026 1.062 3.0755.026.599.0983 2.0481.1233 2.4631.0568.9514.3062 1.0852.8127 1.2518.284.0934.5488.1637.9379.2725 1.1776.3303 1.8757.6664 2.3167 1.0968.2629.2696.3842.5556.4227.8281.1387 1.0129-.7867 2.2647-3.2363 3.4019-2.6778 1.2431-5.9276 1.558-8.1722 1.3076-.1723-.0192-.7847-.0886-.7867-.0886-1.7958-.2416-2.8203 2.079-1.7419 3.6687.6943 1.0245 2.5864 1.6918 4.4795 1.6918 4.3398.001 7.6762-1.8526 8.9165-3.4529.0375-.0482.0404-.053.0992-.1416.0606-.0924.0105-.1425-.0655-.0905-1.014.6933-5.5165 3.4472-10.3339 2.6191 0 0-.5855-.0963-1.1199-.3043-.4246-.1646-1.3134-.5739-1.4212-1.4857 3.8882 1.2046 6.3359.0683 6.3359.0683zm-6.1578-.727c0 .001 0 .001 0 0 .001.002.001.002.001.0029 0-.0009-.001-.0019-.001-.0029zm-7.4365-16.716c1.4935-1.7255 3.3316-3.22571 4.9772-4.06729.0569-.02888.1175.03274.0867.08859-.1309.23687-.3823.74336-.4622 1.12852-.0125.0597.053.10496.103.0703 1.0246-.69811 2.806-1.44629 4.3697-1.54258.0674-.00385.0992.08185.0462.12325-.2378.18199-.4978.43427-.6875.68944-.0327.04333-.0019.10592.052.10592 1.0977.00771 2.6451.39191 3.6533.95713.0683.03852.0192.17043-.0568.1531-1.5262-.34953-4.0231-.61529-6.6181.01733-2.3158.56523-4.0837 1.43759-5.373 2.37549-.0645.0481-.1425-.0385-.0905-.0992z"/></g><defs><clipPath id="clip0"><path fill="#fff" transform="translate(1.66667)" d="M0 0h37.6881v40H0z"/></clipPath></defs></svg>