<svg width="40" height="32" fill="none" xmlns="http://www.w3.org/2000/svg"><path fill-rule="evenodd" clip-rule="evenodd" d="M27.6914 29.7297H15.1072c-.4779 0-.9239.3019-1.066.7674-.239.78.3222 1.4971 1.0452 1.4971h12.5818c.4779 0 .9263-.2982 1.0685-.7674.2377-.78-.3223-1.4971-1.0453-1.4971zm4.0461-19.2708h3.6515c1.0171 0 1.8405-.84788 1.8405-1.89331 0-1.0467-.8234-1.89336-1.8405-1.89336h-3.6515c-1.017 0-1.8417.84666-1.8417 1.89336 0 1.04418.8247 1.89331 1.8417 1.89331zm3.6515 11.0784H20.2561c-1.017 0-1.8405.8467-1.8405 1.8934s.8235 1.8933 1.8405 1.8933H35.389c1.0171 0 1.8417-.8466 1.8417-1.8933s-.8246-1.8934-1.8417-1.8934zM8.55531 13.9135c-1.11874 0-2.02671.9335-2.02671 2.0846s.90675 2.0846 2.02671 2.0846h5.61209c1.1187 0 2.0255-.9335 2.0255-2.0846s-.9068-2.0846-2.028-2.0846H8.55286h.00245zm29.41799 0h-6.0508c-1.1187 0-2.0267.9335-2.0267 2.0846s.9068 2.0846 2.0267 2.0846h6.0508c1.1187 0 2.0267-.9335 2.0267-2.0846s-.9068-2.0846-2.0267-2.0846zm-23.6295-3.4546h11.4998c1.0171 0 1.8405-.84788 1.8405-1.89331 0-1.0467-.8247-1.89336-1.8405-1.89336H1.84167c-1.017031 0-1.84045993.84666-1.84045993 1.89336 0 1.04418.82465393 1.89331 1.84045993 1.89331H14.3438zm1.8503 12.9718c0-1.0467-.8259-1.8934-1.8417-1.8934H1.84167c-1.017031 0-1.84168526.8467-1.84168526 1.8934S.824639 25.324 1.84167 25.324H14.3524c1.017 0 1.8417-.8466 1.8417-1.8933zm16.1304 6.3179c-.7781-.1535-1.4484.5359-1.2989 1.3373.0809.4441.435.8089.8663.8932.7806.151 1.4508-.5384 1.3026-1.3386-.0821-.4466-.4363-.8089-.87-.8919zM16.1904 2.27032h12.5818c.4779 0 .9251-.30193 1.0685-.76992.2377-.779994-.3235-1.49708062-1.0464-1.49708062H16.2125c-.4779 0-.9264.29941562-1.0685.76740862-.2378.779992.3235 1.499592 1.0464 1.499592zm-4.6342-.01761c.7781.15096 1.4483-.53845 1.2988-1.338565-.0808-.445348-.4337-.808924-.8663-.893213-.7781-.150966-1.4483.537186-1.3013 1.338558.0821.44409.435.80893.8688.89322z" fill="#1C2C49"/></svg>